HIERARCHY
ROOT hip
{
  OFFSET 0 90.174 2.4664
  CHANNELS 6 Xposition Yposition Zposition Zrotation Xrotation Yrotation
  JOINT abdomen
  {
    OFFSET 0 -1.186 -1.5018
    CHANNELS 6 Xposition Yposition Zposition Zrotation Xrotation Yrotation
    JOINT abdomen2
    {
      OFFSET 0 9.964 0.2134
      CHANNELS 6 Xposition Yposition Zposition Zrotation Xrotation Yrotation
      JOINT chest
      {
        OFFSET 0 13.134 -3.2573
        CHANNELS 6 Xposition Yposition Zposition Zrotation Xrotation Yrotation
        JOINT neck
        {
          OFFSET 0 20.686 -1.6905
          CHANNELS 6 Xposition Yposition Zposition Zrotation Xrotation Yrotation
          JOINT head
          {
            OFFSET 0 7.238 -0.1237
            CHANNELS 6 Xposition Yposition Zposition Zrotation Xrotation Yrotation
            End Site
            {
              OFFSET 0 0 0
            }
          }
        }
        JOINT lCollar
        {
          OFFSET 1.7069 20.075 5.0056
          CHANNELS 6 Xposition Yposition Zposition Zrotation Xrotation Yrotation
          JOINT lShldr
          {
            OFFSET 13.6458 -0.047 -4.849
            CHANNELS 6 Xposition Yposition Zposition Zrotation Xrotation Yrotation
            JOINT lForeArm
            {
              OFFSET 28.3255 -0.9759 2.2888
              CHANNELS 6 Xposition Yposition Zposition Zrotation Xrotation Yrotation
              JOINT lHand
              {
                OFFSET 22.1583 -0.53 10.8316
                CHANNELS 6 Xposition Yposition Zposition Zrotation Xrotation Yrotation
                JOINT lThumb1
                {
                  OFFSET 0.786 0.112 2.5817
                  CHANNELS 6 Xposition Yposition Zposition Zrotation Xrotation Yrotation
                  JOINT lThumb2
                  {
                    OFFSET 0.3601 -0.878 4.2331
                    CHANNELS 6 Xposition Yposition Zposition Zrotation Xrotation Yrotation
                    JOINT lThumb2_End
                    {
                      OFFSET 1.8127 -1.216 2.2227
                      CHANNELS 6 Xposition Yposition Zposition Zrotation Xrotation Yrotation
                      End Site
                      {
                        OFFSET 0.0181 -0.0122 0.0222
                      }
                    }
                  }
                }
                JOINT lCarpal1
                {
                  OFFSET 0.9571 1.114 1.7695
                  CHANNELS 6 Xposition Yposition Zposition Zrotation Xrotation Yrotation
                  JOINT lIndex1
                  {
                    OFFSET 4.1246 0.487 4.1451
                    CHANNELS 6 Xposition Yposition Zposition Zrotation Xrotation Yrotation
                    JOINT lIndex2
                    {
                      OFFSET 3.4052 -1.454 2.7682
                      CHANNELS 6 Xposition Yposition Zposition Zrotation Xrotation Yrotation
                      JOINT lIndex2_End
                      {
                        OFFSET 1.4531 -1.795 1.2713
                        CHANNELS 6 Xposition Yposition Zposition Zrotation Xrotation Yrotation
                        End Site
                        {
                          OFFSET 0.0145 -0.0179 0.0127
                        }
                      }
                    }
                  }
                  JOINT lMid1
                  {
                    OFFSET 5.6954 0.21 2.1184
                    CHANNELS 6 Xposition Yposition Zposition Zrotation Xrotation Yrotation
                    JOINT lMid2
                    {
                      OFFSET 3.9766 -1.54 2.3863
                      CHANNELS 6 Xposition Yposition Zposition Zrotation Xrotation Yrotation
                      JOINT lMid2_End
                      {
                        OFFSET 1.4042 -1.926 1.125
                        CHANNELS 6 Xposition Yposition Zposition Zrotation Xrotation Yrotation
                        End Site
                        {
                          OFFSET 0.014 -0.0193 0.0113
                        }
                      }
                    }
                  }
                }
                JOINT lCarpal2
                {
                  OFFSET 2.0956 0.66 -0.3894
                  CHANNELS 6 Xposition Yposition Zposition Zrotation Xrotation Yrotation
                  JOINT lRing1
                  {
                    OFFSET 5.0395 -0.09 2.4971
                    CHANNELS 6 Xposition Yposition Zposition Zrotation Xrotation Yrotation
                    JOINT lRing2
                    {
                      OFFSET 3.7921 -1.552 1.4806
                      CHANNELS 6 Xposition Yposition Zposition Zrotation Xrotation Yrotation
                      JOINT lRing2_End
                      {
                        OFFSET 1.4655 -1.808 0.9609
                        CHANNELS 6 Xposition Yposition Zposition Zrotation Xrotation Yrotation
                        End Site
                        {
                          OFFSET 0.0147 -0.0181 0.0096
                        }
                      }
                    }
                  }
                  JOINT lPinky1
                  {
                    OFFSET 4.9141 -1.269 0.3591
                    CHANNELS 6 Xposition Yposition Zposition Zrotation Xrotation Yrotation
                    JOINT lPinky2
                    {
                      OFFSET 3.1477 -1.685 0.8462
                      CHANNELS 6 Xposition Yposition Zposition Zrotation Xrotation Yrotation
                      JOINT lPinky2_End
                      {
                        OFFSET 0.8055 -1.585 0.7955
                        CHANNELS 6 Xposition Yposition Zposition Zrotation Xrotation Yrotation
                        End Site
                        {
                          OFFSET 0.0081 -0.0158 0.008
                        }
                      }
                    }
                  }
                }
              }
            }
          }
        }
        JOINT rCollar
        {
          OFFSET -1.7069 20.075 5.0056
          CHANNELS 6 Xposition Yposition Zposition Zrotation Xrotation Yrotation
          JOINT rShldr
          {
            OFFSET -13.6458 -0.047 -4.849
            CHANNELS 6 Xposition Yposition Zposition Zrotation Xrotation Yrotation
            JOINT rForeArm
            {
              OFFSET -28.3255 -0.9759 2.2888
              CHANNELS 6 Xposition Yposition Zposition Zrotation Xrotation Yrotation
              JOINT rHand
              {
                OFFSET -22.1583 -0.53 10.8316
                CHANNELS 6 Xposition Yposition Zposition Zrotation Xrotation Yrotation
                JOINT rThumb1
                {
                  OFFSET -0.786 0.112 2.5817
                  CHANNELS 6 Xposition Yposition Zposition Zrotation Xrotation Yrotation
                  JOINT rThumb2
                  {
                    OFFSET -0.3601 -0.878 4.2331
                    CHANNELS 6 Xposition Yposition Zposition Zrotation Xrotation Yrotation
                    JOINT rThumb2_End
                    {
                      OFFSET -1.8127 -1.216 2.2227
                      CHANNELS 6 Xposition Yposition Zposition Zrotation Xrotation Yrotation
                      End Site
                      {
                        OFFSET -0.0181 -0.0122 0.0222
                      }
                    }
                  }
                }
                JOINT rCarpal1
                {
                  OFFSET -0.9571 1.114 1.7695
                  CHANNELS 6 Xposition Yposition Zposition Zrotation Xrotation Yrotation
                  JOINT rIndex1
                  {
                    OFFSET -4.1246 0.487 4.1451
                    CHANNELS 6 Xposition Yposition Zposition Zrotation Xrotation Yrotation
                    JOINT rIndex2
                    {
                      OFFSET -3.4052 -1.454 2.7682
                      CHANNELS 6 Xposition Yposition Zposition Zrotation Xrotation Yrotation
                      JOINT rIndex2_End
                      {
                        OFFSET -1.4531 -1.795 1.2713
                        CHANNELS 6 Xposition Yposition Zposition Zrotation Xrotation Yrotation
                        End Site
                        {
                          OFFSET -0.0145 -0.018 0.0127
                        }
                      }
                    }
                  }
                  JOINT rMid1
                  {
                    OFFSET -5.6954 0.21 2.1184
                    CHANNELS 6 Xposition Yposition Zposition Zrotation Xrotation Yrotation
                    JOINT rMid2
                    {
                      OFFSET -3.9766 -1.54 2.3863
                      CHANNELS 6 Xposition Yposition Zposition Zrotation Xrotation Yrotation
                      JOINT rMid2_End
                      {
                        OFFSET -1.4042 -1.926 1.125
                        CHANNELS 6 Xposition Yposition Zposition Zrotation Xrotation Yrotation
                        End Site
                        {
                          OFFSET -0.014 -0.0193 0.0113
                        }
                      }
                    }
                  }
                }
                JOINT rCarpal2
                {
                  OFFSET -2.0956 0.66 -0.3894
                  CHANNELS 6 Xposition Yposition Zposition Zrotation Xrotation Yrotation
                  JOINT rRing1
                  {
                    OFFSET -5.0395 -0.09 2.4971
                    CHANNELS 6 Xposition Yposition Zposition Zrotation Xrotation Yrotation
                    JOINT rRing2
                    {
                      OFFSET -3.7921 -1.552 1.4806
                      CHANNELS 6 Xposition Yposition Zposition Zrotation Xrotation Yrotation
                      JOINT rRing2_End
                      {
                        OFFSET -1.4655 -1.808 0.9609
                        CHANNELS 6 Xposition Yposition Zposition Zrotation Xrotation Yrotation
                        End Site
                        {
                          OFFSET -0.0147 -0.0181 0.0096
                        }
                      }
                    }
                  }
                  JOINT rPinky1
                  {
                    OFFSET -4.9141 -1.269 0.3592
                    CHANNELS 6 Xposition Yposition Zposition Zrotation Xrotation Yrotation
                    JOINT rPinky2
                    {
                      OFFSET -3.1477 -1.685 0.8462
                      CHANNELS 6 Xposition Yposition Zposition Zrotation Xrotation Yrotation
                      JOINT rPinky2_End
                      {
                        OFFSET -0.8055 -1.585 0.7955
                        CHANNELS 6 Xposition Yposition Zposition Zrotation Xrotation Yrotation
                        End Site
                        {
                          OFFSET -0.0081 -0.0158 0.008
                        }
                      }
                    }
                  }
                }
              }
            }
          }
        }
      }
    }
  }
  JOINT lThigh
  {
    OFFSET 8.367 -8.2066 0.5982
    CHANNELS 6 Xposition Yposition Zposition Zrotation Xrotation Yrotation
    JOINT lShin
    {
      OFFSET 2.1923 -43.463 -0.4932
      CHANNELS 6 Xposition Yposition Zposition Zrotation Xrotation Yrotation
      JOINT lFoot
      {
        OFFSET 0.7333 -45.8593 -2.6451
        CHANNELS 6 Xposition Yposition Zposition Zrotation Xrotation Yrotation
        End Site
        {
          OFFSET 2.6618 -4.2699 12.3931
        }
      }
    }
  }
  JOINT rThigh
  {
    OFFSET -8.367 -8.2066 0.5982
    CHANNELS 6 Xposition Yposition Zposition Zrotation Xrotation Yrotation
    JOINT rShin
    {
      OFFSET -2.1923 -43.463 -0.4931
      CHANNELS 6 Xposition Yposition Zposition Zrotation Xrotation Yrotation
      JOINT rFoot
      {
        OFFSET -0.7333 -45.8593 -2.6451
        CHANNELS 6 Xposition Yposition Zposition Zrotation Xrotation Yrotation
        End Site
        {
          OFFSET -2.6618 -4.2699 12.3931
        }
      }
    }
  }
}
MOTION
Frames:	4
Frame Time:	0.0333333
0 90.174 2.4664 0 0 -0 0 -1.186 -1.5018 0 0 -0 0 9.964 0.2134 0 0 -0 0 13.134 -3.2573 0 0 -0 0 20.686 -1.6905 0 0 -0 0 7.238 -0.1237 0 0 -0 1.7069 20.075 5.0056 0 0 -0 13.6458 -0.047 -4.849 1.66051 0.0835086 5.75766 28.3255 -0.9759 2.2888 -0.0175111 0.895433 15.7816 22.1583 -0.53 10.8316 7.95139e-016 -1.98785e-016 -0 0.786 0.112 2.5817 5.46658e-016 -3.97569e-016 -0 0.3601 -0.878 4.2331 5.96354e-016 0 -0 1.8127 -1.216 2.2227 3.97569e-016 1.98785e-016 9.54166e-015 0.9571 1.114 1.7695 1.49089e-016 -3.97569e-016 -0 4.1246 0.487 4.1451 6.4605e-016 0 3.18055e-015 3.4052 -1.454 2.7682 5.96354e-016 0 3.18055e-015 1.4531 -1.795 1.2713 8.94531e-016 -1.98785e-016 6.36111e-015 5.6954 0.21 2.1184 6.4605e-016 0 3.18055e-015 3.9766 -1.54 2.3863 5.96354e-016 0 3.18055e-015 1.4042 -1.926 1.125 8.94531e-016 -1.98785e-016 6.36111e-015 2.0956 0.66 -0.3894 1.49089e-016 -3.97569e-016 -0 5.0395 -0.09 2.4971 6.4605e-016 0 3.18055e-015 3.7921 -1.552 1.4806 5.96354e-016 0 3.18055e-015 1.4655 -1.808 0.9609 8.94531e-016 -1.98785e-016 6.36111e-015 4.9141 -1.269 0.3591 6.4605e-016 0 3.18055e-015 3.1477 -1.685 0.8462 5.96354e-016 0 3.18055e-015 0.8055 -1.585 0.7955 8.94531e-016 -1.98785e-016 6.36111e-015 -1.7069 20.075 5.0056 0 0 -0 -13.6458 -0.047 -4.849 -1.4496 0.0636048 -5.0245 -28.3255 -0.9759 2.2888 -1.74811 1.20616 -16.8394 -22.1583 -0.53 10.8316 -1.19271e-015 1.98785e-016 -3.18055e-015 -0.786 0.112 2.5817 -3.97569e-016 1.98785e-016 -3.18055e-015 -0.3601 -0.878 4.2331 -2.98177e-016 1.98785e-016 -3.18055e-015 -1.8127 -1.216 2.2227 -2.98177e-016 3.97569e-016 -0 -0.9571 1.114 1.7695 4.96962e-016 0 -6.36111e-015 -4.1246 0.487 4.1451 -9.93923e-017 3.97569e-016 -0 -3.4052 -1.454 2.7682 -8.94531e-016 5.96354e-016 -0 -1.4531 -1.795 1.2713 -3.97569e-016 3.97569e-016 -0 -5.6954 0.21 2.1184 -9.93923e-017 3.97569e-016 -0 -3.9766 -1.54 2.3863 -8.94531e-016 5.96354e-016 -0 -1.4042 -1.926 1.125 -3.97569e-016 3.97569e-016 -0 -2.0956 0.66 -0.3894 4.96962e-016 0 -6.36111e-015 -5.0395 -0.09 2.4971 -9.93923e-017 3.97569e-016 -0 -3.7921 -1.552 1.4806 -8.94531e-016 5.96354e-016 -0 -1.4655 -1.808 0.9609 -3.97569e-016 3.97569e-016 -0 -4.9141 -1.269 0.3592 -9.93923e-017 3.97569e-016 -0 -3.1477 -1.685 0.8462 -8.94531e-016 5.96354e-016 -0 -0.8055 -1.585 0.7955 -3.97569e-016 3.97569e-016 -0 8.367 -8.2066 0.5982 -4.66115 -1.03232 0.120763 2.1923 -43.463 -0.4932 0.00990601 1.55097 0.177175 0.7333 -45.8593 -2.6451 4.65196 -0.54114 -0.255042 -8.367 -8.2066 0.5982 4.66115 -1.03222 -0.120763 -2.1923 -43.463 -0.4931 -0.00990459 1.5509 -0.177176 -0.7333 -45.8593 -2.6451 -4.65196 -0.541171 0.255041 
0.103826 9.21667 -3.4679 -180 -40.0083 -180 -1.38778e-017 -1.186 -1.5018 0.770556 16.1632 -0.511326 -2.77556e-017 9.964 0.2134 1.81472 32.3166 -1.34623 -5.55112e-017 13.134 -3.2573 1.81472 32.3166 -1.34623 -2.22045e-016 20.686 -1.6905 -7.45873e-005 27.5923 3.69347e-005 2.22045e-016 7.238 -0.1237 6.44102e-007 8.11507 4.50694e-007 1.7069 20.075 5.0056 -10.1077 -0.795305 -8.99638 13.6458 -0.047 -4.849 -45.4743 3.43722 0.55592 28.3255 -0.9759 2.2888 -44.7167 -23.7301 -46.4241 22.1583 -0.53 10.8316 -21.5306 30.7875 8.92824 0.786 0.112 2.5817 -3.18055e-015 2.78299e-015 -1.59028e-015 0.3601 -0.878 4.2331 -1.36436e-006 4.31299e-007 -1.99383e-006 1.8127 -1.216 2.2227 -1.35989e-006 2.33951e-006 -1.26678e-006 0.9571 1.114 1.7695 -1.59028e-015 3.18055e-015 1.59028e-015 4.1246 0.487 4.1451 1.59028e-015 3.97569e-016 -3.18055e-015 3.4052 -1.454 2.7682 -1.36436e-006 4.31299e-007 -1.99383e-006 1.4531 -1.795 1.2713 -1.35989e-006 2.33951e-006 -1.26678e-006 5.6954 0.21 2.1184 1.59028e-015 3.97569e-016 -3.18055e-015 3.9766 -1.54 2.3863 -1.36436e-006 4.31299e-007 -1.99383e-006 1.4042 -1.926 1.125 -1.35989e-006 2.33951e-006 -1.26678e-006 2.0956 0.66 -0.3894 -1.59028e-015 3.18055e-015 1.59028e-015 5.0395 -0.09 2.4971 1.59028e-015 3.97569e-016 -3.18055e-015 3.7921 -1.552 1.4806 -1.36436e-006 4.31299e-007 -1.99383e-006 1.4655 -1.808 0.9609 -1.35989e-006 2.33951e-006 -1.26678e-006 4.9141 -1.269 0.3591 1.59028e-015 3.97569e-016 -3.18055e-015 3.1477 -1.685 0.8462 -1.36436e-006 4.31299e-007 -1.99383e-006 0.8055 -1.585 0.7955 -1.35989e-006 2.33951e-006 -1.26678e-006 -1.7069 20.075 5.0056 10.1028 -0.796103 8.9916 -13.6458 -0.047 -4.849 45.6859 3.43547 0.16221 -28.3255 -0.9759 2.2888 43.161 -25.4833 45.0288 -22.1583 -0.53 10.8316 21.0905 31.139 -8.00703 -0.786 0.112 2.5817 -6.36111e-015 -3.97569e-016 1.59028e-015 -0.3601 -0.878 4.2331 -6.36111e-015 -7.95139e-016 -0 -1.8127 -1.216 2.2227 -6.36111e-015 -2.78299e-015 1.59028e-015 -0.9571 1.114 1.7695 -4.77083e-015 -7.95139e-016 -1.59028e-015 -4.1246 0.487 4.1451 -7.95139e-015 -2.38542e-014 9.54166e-015 -3.4052 -1.454 2.7682 1.59028e-015 2.78299e-015 3.18055e-015 -1.4531 -1.795 1.2713 -1.59028e-015 -1.19271e-015 3.18055e-015 -5.6954 0.21 2.1184 -7.95139e-015 -2.38542e-014 9.54166e-015 -3.9766 -1.54 2.3863 1.59028e-015 2.78299e-015 3.18055e-015 -1.4042 -1.926 1.125 -1.59028e-015 -1.19271e-015 3.18055e-015 -2.0956 0.66 -0.3894 -4.77083e-015 -7.95139e-016 -1.59028e-015 -5.0395 -0.09 2.4971 -7.95139e-015 -2.38542e-014 9.54166e-015 -3.7921 -1.552 1.4806 1.59028e-015 2.78299e-015 3.18055e-015 -1.4655 -1.808 0.9609 -1.59028e-015 -1.19271e-015 3.18055e-015 -4.9141 -1.269 0.3592 -7.95139e-015 -2.38542e-014 9.54166e-015 -3.1477 -1.685 0.8462 1.59028e-015 2.78299e-015 3.18055e-015 -0.8055 -1.585 0.7955 -1.59028e-015 -1.19271e-015 3.18055e-015 8.367 -8.2066 0.5982 121.457 -64.3571 143.709 2.1923 -43.463 -0.4932 -64.3347 15.0642 54.9667 0.7333 -45.8593 -2.6451 0.902097 10.6374 4.99441 -8.367 -8.2066 0.5982 -118.286 -63.5956 -142.137 -2.1923 -43.463 -0.4931 65.2001 26.3658 -91.6454 -0.7333 -45.8593 -2.6451 -2.18543 12.3466 -7.34801 
0.0907615 -2.46627 -1.73374 -180 -17.2561 -180 -1.38778e-017 -1.186 -1.5018 0.92969 18.8056 -0.665527 2.77556e-017 9.964 0.2134 2.31115 37.5946 -1.83881 1.11022e-016 13.134 -3.2573 2.31115 37.5946 -1.83881 -6.66134e-016 20.686 -1.6905 -5.34014e-005 32.533 2.84143e-005 0 7.238 -0.1237 5.98462e-007 8.29296 1.44813e-006 1.7069 20.075 5.0056 -11.9981 -0.857703 -10.576 13.6458 -0.047 -4.849 -52.9424 3.94449 -0.28564 28.3255 -0.9759 2.2888 -55.2719 -19.6958 -55.524 22.1583 -0.53 10.8316 -26.0172 35.9702 10.7052 0.786 0.112 2.5817 1.30999e-006 4.00051e-006 -3.69135e-006 0.3601 -0.878 4.2331 -1.30999e-006 -4.00051e-006 3.69135e-006 1.8127 -1.216 2.2227 1.30999e-006 4.00051e-006 -3.69135e-006 0.9571 1.114 1.7695 -4.77083e-015 3.18055e-015 -3.18055e-015 4.1246 0.487 4.1451 1.30999e-006 4.00051e-006 -3.69135e-006 3.4052 -1.454 2.7682 -1.30999e-006 -4.00051e-006 3.69135e-006 1.4531 -1.795 1.2713 1.30999e-006 4.00051e-006 -3.69135e-006 5.6954 0.21 2.1184 1.30999e-006 4.00051e-006 -3.69135e-006 3.9766 -1.54 2.3863 -1.30999e-006 -4.00051e-006 3.69135e-006 1.4042 -1.926 1.125 1.30999e-006 4.00051e-006 -3.69135e-006 2.0956 0.66 -0.3894 -4.77083e-015 3.18055e-015 -3.18055e-015 5.0395 -0.09 2.4971 1.30999e-006 4.00051e-006 -3.69135e-006 3.7921 -1.552 1.4806 -1.30999e-006 -4.00051e-006 3.69135e-006 1.4655 -1.808 0.9609 1.30999e-006 4.00051e-006 -3.69135e-006 4.9141 -1.269 0.3591 1.30999e-006 4.00051e-006 -3.69135e-006 3.1477 -1.685 0.8462 -1.30999e-006 -4.00051e-006 3.69135e-006 0.8055 -1.585 0.7955 1.30999e-006 4.00051e-006 -3.69135e-006 -1.7069 20.075 5.0056 12.0138 -0.855989 10.5904 -13.6458 -0.047 -4.849 53.12 3.93998 1.00001 -28.3255 -0.9759 2.2888 54.0492 -21.7105 54.4137 -22.1583 -0.53 10.8316 25.4878 36.3927 -9.60496 -0.786 0.112 2.5817 -1.90842e-007 2.11764e-006 2.68346e-006 -0.3601 -0.878 4.2331 1.90842e-007 -2.11764e-006 -2.68346e-006 -1.8127 -1.216 2.2227 -8.28759e-007 2.76749e-006 1.29971e-006 -0.9571 1.114 1.7695 6.36111e-015 -3.18055e-015 -6.36111e-015 -4.1246 0.487 4.1451 -1.90842e-007 2.11764e-006 2.68346e-006 -3.4052 -1.454 2.7682 1.90842e-007 -2.11764e-006 -2.68346e-006 -1.4531 -1.795 1.2713 -8.28759e-007 2.76749e-006 1.29971e-006 -5.6954 0.21 2.1184 -1.90842e-007 2.11764e-006 2.68346e-006 -3.9766 -1.54 2.3863 1.90842e-007 -2.11764e-006 -2.68346e-006 -1.4042 -1.926 1.125 -8.28759e-007 2.76749e-006 1.29971e-006 -2.0956 0.66 -0.3894 6.36111e-015 -3.18055e-015 -6.36111e-015 -5.0395 -0.09 2.4971 -1.90842e-007 2.11764e-006 2.68346e-006 -3.7921 -1.552 1.4806 1.90842e-007 -2.11764e-006 -2.68346e-006 -1.4655 -1.808 0.9609 -8.28759e-007 2.76749e-006 1.29971e-006 -4.9141 -1.269 0.3592 -1.90842e-007 2.11764e-006 2.68346e-006 -3.1477 -1.685 0.8462 1.90842e-007 -2.11764e-006 -2.68346e-006 -0.8055 -1.585 0.7955 -8.28759e-007 2.76749e-006 1.29971e-006 8.367 -8.2066 0.5982 130.512 -47.465 153.211 2.1923 -43.463 -0.4932 -77.6417 14.0093 64.1459 0.7333 -45.8593 -2.6451 0.232834 12.3229 5.91281 -8.367 -8.2066 0.5982 -126.554 -47.9411 -150.008 -2.1923 -43.463 -0.4931 76.8092 15.2781 -93.8151 -0.7333 -45.8593 -2.6451 0.0665691 14.1991 -9.53829 
0.104591 0.427496 -2.33327 -180 -23.2676 -180 0 -1.186 -1.5018 0.887911 18.1346 -0.623941 0 9.964 0.2134 2.17513 36.2547 -1.70191 0 13.134 -3.2573 2.17513 36.2547 -1.70191 0 20.686 -1.6905 2.89151e-005 31.9147 -1.6289e-005 0 7.238 -0.1237 3.76808e-007 6.52046 -7.34283e-008 1.7069 20.075 5.0056 -11.8368 -0.746047 -10.3353 13.6458 -0.047 -4.849 -50.7679 3.76242 -0.0516421 28.3255 -0.9759 2.2888 -52.614 -21.1217 -53.398 22.1583 -0.53 10.8316 -24.8662 34.8151 9.97917 0.786 0.112 2.5817 -1.59028e-015 -1.59028e-015 3.18055e-015 0.3601 -0.878 4.2331 -4.77083e-015 -1.59028e-015 6.36111e-015 1.8127 -1.216 2.2227 -7.95139e-015 0 6.36111e-015 0.9571 1.114 1.7695 -0 -1.59028e-015 -0 4.1246 0.487 4.1451 -4.77083e-015 -1.59028e-015 -0 3.4052 -1.454 2.7682 -4.77083e-015 -4.77083e-015 -0 1.4531 -1.795 1.2713 -3.18055e-015 -3.18055e-015 6.36111e-015 5.6954 0.21 2.1184 -4.77083e-015 -1.59028e-015 -0 3.9766 -1.54 2.3863 -4.77083e-015 -4.77083e-015 -0 1.4042 -1.926 1.125 -3.18055e-015 -3.18055e-015 6.36111e-015 2.0956 0.66 -0.3894 -0 -1.59028e-015 -0 5.0395 -0.09 2.4971 -4.77083e-015 -1.59028e-015 -0 3.7921 -1.552 1.4806 -4.77083e-015 -4.77083e-015 -0 1.4655 -1.808 0.9609 -3.18055e-015 -3.18055e-015 6.36111e-015 4.9141 -1.269 0.3591 -4.77083e-015 -1.59028e-015 -0 3.1477 -1.685 0.8462 -4.77083e-015 -4.77083e-015 -0 0.8055 -1.585 0.7955 -3.18055e-015 -3.18055e-015 6.36111e-015 -1.7069 20.075 5.0056 11.8794 -0.740869 10.3746 -13.6458 -0.047 -4.849 50.9029 3.74997 0.764963 -28.3255 -0.9759 2.2888 51.2938 -23.119 52.2048 -22.1583 -0.53 10.8316 24.4208 35.2186 -8.94964 -0.786 0.112 2.5817 3.53113e-031 6.36111e-015 -3.18055e-015 -0.3601 -0.878 4.2331 6.36111e-015 7.95139e-015 3.18055e-015 -1.8127 -1.216 2.2227 -3.18055e-015 9.54166e-015 9.54166e-015 -0.9571 1.114 1.7695 -8.82781e-032 -1.59028e-015 -3.18055e-015 -4.1246 0.487 4.1451 -1.27222e-014 -3.18055e-015 1.90833e-014 -3.4052 -1.454 2.7682 -1.27222e-014 7.95139e-015 3.18055e-015 -1.4531 -1.795 1.2713 -3.18055e-015 3.18055e-015 9.54166e-015 -5.6954 0.21 2.1184 -1.27222e-014 -3.18055e-015 1.90833e-014 -3.9766 -1.54 2.3863 -1.27222e-014 7.95139e-015 3.18055e-015 -1.4042 -1.926 1.125 -3.18055e-015 3.18055e-015 9.54166e-015 -2.0956 0.66 -0.3894 -8.82781e-032 -1.59028e-015 -3.18055e-015 -5.0395 -0.09 2.4971 -1.27222e-014 -3.18055e-015 1.90833e-014 -3.7921 -1.552 1.4806 -1.27222e-014 7.95139e-015 3.18055e-015 -1.4655 -1.808 0.9609 -3.18055e-015 3.18055e-015 9.54166e-015 -4.9141 -1.269 0.3592 -1.27222e-014 -3.18055e-015 1.90833e-014 -3.1477 -1.685 0.8462 -1.27222e-014 7.95139e-015 3.18055e-015 -0.8055 -1.585 0.7955 -3.18055e-015 3.18055e-015 9.54166e-015 8.367 -8.2066 0.5982 129.071 -51.6314 151.739 2.1923 -43.463 -0.4932 -74.6392 14.2557 61.8458 0.7333 -45.8593 -2.6451 0.329866 11.7516 5.68848 -8.367 -8.2066 0.5982 -125.337 -51.8927 -148.952 -2.1923 -43.463 -0.4931 73.8213 18.099 -93.7493 -0.7333 -45.8593 -2.6451 -0.408179 13.8407 -8.95297 
